PathFileType	4	(X/Y/Z)	S:\OneDrive - The University of Tokyo\ìåëÂéˆã∆\ÉoÉCÉÅÉJ\ë™íË\hirabayashi_2\Trimmed\Trimmed_BarR20kg1.trc
DataRate	CameraRate	NumFrames	NumMarkers	Units	OrigDataRate	OrigDataStartFrame	OrigNumFrames
200.00	200.00	       26	12	mm	200.00	118	       313
Frame#	Time	BarR0			BarR50			BarR100			BarR130			BarR180			BarR230			BarL0			BarL50			BarL100			BarL130			BarL180			BarL230			
		X1	Y1	Z1	X2	Y2	Z2	X3	Y3	Z3	X4	Y4	Z4	X5	Y5	Z5	X6	Y6	Z6	X7	Y7	Z7	X8	Y8	Z8	X9	Y9	Z9	X10	Y10	Z10	X11	Y11	Z11	X12	Y12	Z12	

118	0.585	-576.34192	2754.89355	1664.22119	-603.88470	2305.64795	1657.82788	-637.89130	1851.82544	1654.48816	-660.49475	1349.59363	1654.41711	-689.77698	902.98071	1658.47156	-713.77649	455.06522	1664.12390	-1113.50842	2808.14819	1664.65649	-1140.77161	2356.50635	1667.94348	-1171.27686	1906.03467	1668.92090	-1198.99036	1404.27576	1669.26709	-1226.83813	952.61932	1668.41309	-1244.69019	506.44800	1667.64331	
119	0.590	-576.33044	2754.89087	1664.22778	-603.87109	2305.62500	1657.82129	-637.89960	1851.82849	1654.48816	-660.48828	1349.63513	1654.42908	-689.76721	902.98932	1658.46375	-713.77429	455.07526	1664.12061	-1113.53064	2808.14526	1664.66675	-1140.76941	2356.48877	1667.94446	-1171.25867	1906.02771	1668.91821	-1198.99194	1404.26184	1669.25415	-1226.81360	952.65222	1668.40710	-1244.70667	506.46170	1667.66467	
120	0.595	-576.35016	2754.91455	1664.22693	-603.88751	2305.64673	1657.80640	-637.90039	1851.83191	1654.48035	-660.48505	1349.60657	1654.42188	-689.77124	902.98096	1658.47437	-713.77740	455.04575	1664.11414	-1113.49756	2808.13818	1664.65100	-1140.77905	2356.49707	1667.95532	-1171.27942	1906.03650	1668.91895	-1198.99390	1404.27014	1669.26233	-1226.82922	952.64587	1668.41553	-1244.70862	506.45444	1667.66321	
121	0.600	-576.34167	2754.89087	1664.23401	-603.89819	2305.67017	1657.81177	-637.88031	1851.82874	1654.50464	-660.49023	1349.59558	1654.42090	-689.75897	903.00366	1658.48242	-713.75769	455.04971	1664.12549	-1113.51636	2808.17725	1664.68005	-1140.77588	2356.51172	1667.93628	-1171.26282	1906.02429	1668.92310	-1198.99316	1404.31604	1669.26733	-1226.83057	952.63098	1668.41113	-1244.70825	506.44897	1667.65430	
122	0.605	-576.35767	2754.91772	1664.24817	-603.89093	2305.65039	1657.81921	-637.90210	1851.79883	1654.50061	-660.48639	1349.61340	1654.42834	-689.76300	902.95709	1658.46667	-713.76483	455.07629	1664.11450	-1113.49133	2808.15698	1664.65515	-1140.77075	2356.51416	1667.95007	-1171.27075	1906.04358	1668.91125	-1198.99231	1404.29749	1669.26697	-1226.82959	952.63556	1668.41223	-1244.69763	506.47116	1667.65613	
123	0.610	-576.34393	2754.91724	1664.24707	-603.88531	2305.64233	1657.81079	-637.92999	1851.80481	1654.49768	-660.46808	1349.62939	1654.41467	-689.76892	902.99896	1658.47766	-713.76727	455.06393	1664.12195	-1113.48584	2808.14307	1664.65527	-1140.76611	2356.51001	1667.94043	-1171.27295	1906.05823	1668.91907	-1198.98401	1404.27795	1669.25232	-1226.82715	952.63989	1668.40967	-1244.70923	506.47067	1667.65649	
124	0.615	-576.32080	2754.89233	1664.24109	-603.89941	2305.65332	1657.83215	-637.88818	1851.82190	1654.49939	-660.46521	1349.63367	1654.42163	-689.77045	902.98883	1658.46655	-713.76257	455.06708	1664.12048	-1113.49438	2808.16992	1664.65063	-1140.77112	2356.49438	1667.94495	-1171.27515	1906.04675	1668.91113	-1199.01282	1404.29834	1669.25928	-1226.82813	952.64374	1668.40991	-1244.69763	506.46942	1667.65173	
125	0.620	-576.33539	2754.91113	1664.22559	-603.89661	2305.64551	1657.81702	-637.88983	1851.79822	1654.50183	-660.49115	1349.62842	1654.42053	-689.76837	902.99377	1658.46594	-713.77734	455.08948	1664.11084	-1113.50183	2808.16455	1664.66113	-1140.75879	2356.47974	1667.94653	-1171.26807	1906.06042	1668.90796	-1198.99426	1404.28320	1669.25122	-1226.84045	952.62292	1668.41370	-1244.69080	506.45114	1667.65491	
126	0.625	-576.34833	2754.90088	1664.24048	-603.87177	2305.65527	1657.82556	-637.88458	1851.80334	1654.50623	-660.48669	1349.61169	1654.43030	-689.76263	902.98901	1658.47961	-713.75165	455.06503	1664.12317	-1113.48767	2808.16357	1664.64478	-1140.76099	2356.52075	1667.94800	-1171.28699	1906.05872	1668.90771	-1198.99597	1404.27576	1669.25378	-1226.81873	952.65192	1668.40027	-1244.71606	506.46399	1667.65027	
127	0.630	-576.35559	2754.90674	1664.23267	-603.88733	2305.65454	1657.81348	-637.90948	1851.83167	1654.49146	-660.48462	1349.61316	1654.43201	-689.74603	902.96521	1658.46765	-713.76746	455.06998	1664.13086	-1113.52295	2808.17261	1664.66736	-1140.76477	2356.51318	1667.95374	-1171.26758	1906.05029	1668.91431	-1198.98120	1404.31360	1669.25281	-1226.82886	952.63068	1668.41382	-1244.69922	506.45837	1667.66199	
128	0.635	-576.34888	2754.90356	1664.23438	-603.90356	2305.63599	1657.81274	-637.89459	1851.82520	1654.49792	-660.48883	1349.59827	1654.42444	-689.77509	902.97406	1658.47241	-713.77380	455.07089	1664.11389	-1113.50024	2808.18262	1664.66223	-1140.76892	2356.52905	1667.94971	-1171.26062	1906.03845	1668.93115	-1198.98315	1404.28418	1669.25330	-1226.83459	952.62231	1668.42126	-1244.71033	506.46219	1667.65405	
129	0.640	-576.34253	2754.91309	1664.25195	-603.89703	2305.61621	1657.80701	-637.91046	1851.80408	1654.50293	-660.46918	1349.62524	1654.42627	-689.77716	903.00256	1658.46765	-713.77167	455.06448	1664.12854	-1113.49365	2808.15698	1664.66785	-1140.77051	2356.49512	1667.94788	-1171.24329	1906.02100	1668.92004	-1198.98584	1404.27783	1669.27161	-1226.81604	952.63593	1668.41602	-1244.70398	506.46280	1667.64978	
130	0.645	-576.34576	2754.90015	1664.22668	-603.89526	2305.64868	1657.80432	-637.90875	1851.80640	1654.49060	-660.47839	1349.62061	1654.43665	-689.76837	902.99359	1658.45850	-713.77759	455.07297	1664.12073	-1113.46594	2808.14233	1664.66638	-1140.77405	2356.51514	1667.92322	-1171.28516	1906.04077	1668.91187	-1198.97314	1404.29456	1669.25439	-1226.82324	952.63574	1668.40771	-1244.69678	506.44296	1667.64978	
131	0.650	-576.35449	2754.90088	1664.22632	-603.89294	2305.63403	1657.81909	-637.91205	1851.84631	1654.50476	-660.47394	1349.61328	1654.41321	-689.77643	902.99506	1658.45703	-713.75372	455.06488	1664.12439	-1113.52002	2808.17554	1664.67322	-1140.76660	2356.51587	1667.93811	-1171.26208	1906.02087	1668.92188	-1198.99219	1404.28955	1669.25977	-1226.82068	952.65948	1668.41077	-1244.69214	506.47443	1667.65625	
132	0.655	-576.35016	2754.90601	1664.22888	-603.90521	2305.63940	1657.82813	-637.90607	1851.83044	1654.49951	-660.49567	1349.60706	1654.41760	-689.77258	902.99213	1658.46289	-713.77271	455.05359	1664.12170	-1113.49060	2808.18286	1664.65173	-1140.76050	2356.50854	1667.93799	-1171.26208	1906.02551	1668.91992	-1198.98730	1404.27893	1669.25574	-1226.82666	952.63525	1668.39880	-1244.69690	506.44968	1667.65881	
133	0.660	-576.34265	2754.93237	1664.23096	-603.89807	2305.63306	1657.82068	-637.90607	1851.83142	1654.50305	-660.48364	1349.59961	1654.41895	-689.77673	903.00500	1658.46436	-713.78351	455.06537	1664.11694	-1113.51379	2808.13525	1664.66235	-1140.77124	2356.49634	1667.95117	-1171.25415	1906.03906	1668.92566	-1199.00269	1404.27661	1669.25208	-1226.82678	952.63416	1668.40686	-1244.70740	506.46136	1667.66321	
134	0.665	-576.35120	2754.89966	1664.24084	-603.86914	2305.62842	1657.82764	-637.91949	1851.81506	1654.48474	-660.48029	1349.62305	1654.42505	-689.77106	903.00623	1658.46851	-713.78339	455.08420	1664.11987	-1113.48584	2808.17505	1664.67236	-1140.76489	2356.50952	1667.95239	-1171.26013	1906.02747	1668.92786	-1198.99487	1404.28943	1669.26453	-1226.82446	952.64758	1668.40088	-1244.71753	506.46066	1667.64612	
135	0.670	-576.35651	2754.92358	1664.22290	-603.89185	2305.63281	1657.81250	-637.92670	1851.81873	1654.50183	-660.47644	1349.61047	1654.42822	-689.77368	902.99036	1658.46216	-713.76477	455.07108	1664.12158	-1113.50574	2808.16138	1664.64661	-1140.78149	2356.49829	1667.94470	-1171.27087	1906.03296	1668.93103	-1198.99194	1404.30115	1669.26611	-1226.82849	952.63190	1668.40686	-1244.69189	506.43341	1667.65125	
136	0.675	-576.34235	2754.89966	1664.23206	-603.89648	2305.63696	1657.82739	-637.90607	1851.83484	1654.50452	-660.48907	1349.64478	1654.44043	-689.77087	902.97168	1658.46973	-713.77301	455.08411	1664.11743	-1113.49219	2808.12891	1664.66016	-1140.76453	2356.51123	1667.94775	-1171.28320	1906.02271	1668.91052	-1198.99255	1404.28906	1669.24646	-1226.83044	952.63727	1668.40820	-1244.69727	506.44788	1667.66296	
137	0.680	-576.35486	2754.89722	1664.22729	-603.88342	2305.65820	1657.82373	-637.90869	1851.80591	1654.50928	-660.48627	1349.62097	1654.41858	-689.76428	902.98151	1658.46863	-713.76019	455.07123	1664.11169	-1113.47961	2808.15991	1664.66333	-1140.76672	2356.49585	1667.94153	-1171.27087	1906.02844	1668.93005	-1198.99707	1404.28796	1669.25000	-1226.83032	952.63391	1668.40234	-1244.70203	506.45349	1667.64648	
138	0.685	-576.35022	2754.90869	1664.22241	-603.89496	2305.64282	1657.82214	-637.91901	1851.81018	1654.48987	-660.49353	1349.62109	1654.42542	-689.77795	902.99512	1658.47534	-713.76758	455.07132	1664.11780	-1113.50745	2808.15430	1664.67761	-1140.76404	2356.52002	1667.94958	-1171.26355	1906.04150	1668.91467	-1198.99487	1404.29871	1669.27307	-1226.82764	952.63733	1668.41150	-1244.70532	506.45490	1667.65051	
139	0.690	-576.34473	2754.92456	1664.23132	-603.88269	2305.64893	1657.82385	-637.87512	1851.81433	1654.50232	-660.50946	1349.62415	1654.43188	-689.76758	903.03394	1658.45532	-713.77393	455.09042	1664.11621	-1113.49219	2808.15186	1664.67029	-1140.75708	2356.51099	1667.95947	-1171.25610	1906.04138	1668.92786	-1198.99329	1404.27612	1669.26685	-1226.81921	952.63153	1668.41333	-1244.71045	506.45731	1667.65051	
140	0.695	-576.32941	2754.90674	1664.23792	-603.89038	2305.66455	1657.82202	-637.91144	1851.82141	1654.49182	-660.47900	1349.63000	1654.43042	-689.78467	902.99017	1658.47363	-713.77814	455.07822	1664.11536	-1113.48547	2808.16772	1664.66992	-1140.76782	2356.50977	1667.93591	-1171.24988	1906.04810	1668.91650	-1198.98914	1404.28784	1669.26123	-1226.81873	952.62762	1668.40735	-1244.68677	506.46152	1667.65430	
141	0.700	-576.35242	2754.89404	1664.23657	-603.87988	2305.63477	1657.80603	-637.89276	1851.82056	1654.49939	-660.48492	1349.60291	1654.42322	-689.77625	903.00922	1658.47217	-713.78046	455.05841	1664.12109	-1113.51880	2808.15698	1664.65723	-1140.76538	2356.50146	1667.94128	-1171.27246	1906.03601	1668.90955	-1198.97400	1404.29358	1669.25012	-1226.82886	952.63641	1668.40002	-1244.70288	506.45096	1667.64331	
142	0.705	-576.34705	2754.89185	1664.22949	-603.88916	2305.64624	1657.83203	-637.91888	1851.83484	1654.50354	-660.51141	1349.63794	1654.43115	-689.75671	902.98279	1658.46301	-713.76855	455.05994	1664.11853	-1113.51367	2808.15015	1664.67090	-1140.76758	2356.52002	1667.95129	-1171.28979	1906.04443	1668.92798	-1199.00037	1404.28479	1669.24744	-1226.82251	952.64148	1668.40833	-1244.69299	506.46725	1667.64673	
143	0.710	-576.35724	2754.91089	1664.23169	-603.86749	2305.63574	1657.80688	-637.88867	1851.82996	1654.48352	-660.49005	1349.58276	1654.42725	-689.75684	902.99597	1658.45471	-713.77283	455.08853	1664.11523	-1113.51611	2808.15454	1664.66687	-1140.76758	2356.52368	1667.94922	-1171.27039	1906.03625	1668.91772	-1198.99878	1404.30310	1669.26001	-1226.82813	952.62854	1668.40222	-1244.68945	506.45309	1667.65674	
